<svg width="16" height="13" viewBox="0 0 16 13" fill="none" xmlns="http://www.w3.org/2000/svg">
<path fill-rule="evenodd" clip-rule="evenodd" d="M0.916687 6.76562C0.916687 6.19033 1.38306 5.72396 1.95835 5.72396H14.4584C15.0337 5.72396 15.5 6.19033 15.5 6.76562C15.5 7.34092 15.0337 7.80729 14.4584 7.80729H1.95835C1.38306 7.80729 0.916687 7.34092 0.916687 6.76562Z" fill="#343232"/>
<path fill-rule="evenodd" clip-rule="evenodd" d="M8.68923 0.996503C9.09603 0.589707 9.75558 0.589707 10.1624 0.996503L15.1949 6.02906C15.6017 6.43585 15.6017 7.0954 15.1949 7.50219L10.1624 12.5347C9.75558 12.9415 9.09603 12.9415 8.68923 12.5347C8.28244 12.128 8.28244 11.4684 8.68923 11.0616L12.9852 6.76562L8.68923 2.46964C8.28244 2.06285 8.28244 1.4033 8.68923 0.996503Z" fill="#343232"/>
</svg>
