<svg width="20" height="18" viewBox="0 0 20 18" fill="none" xmlns="http://www.w3.org/2000/svg">
<path d="M18.1656 1.83418L18.1661 1.83474C19.0224 2.69013 19.5005 3.84295 19.5005 5.05V12.95C19.5005 15.4625 17.4557 17.5 14.9395 17.5H5.06049C2.54441 17.5 0.500488 15.4626 0.500488 12.95V5.05C0.500488 2.53672 2.53505 0.5 5.06049 0.5H14.9395C16.1489 0.5 17.3112 0.978001 18.1656 1.83418ZM16.1205 4.70251L16.1086 4.70131L16.0966 4.70068C15.7626 4.68319 15.436 4.79416 15.1849 5.01934L10.6885 8.60926L10.6885 8.60919L10.6813 8.61513C10.2878 8.94145 9.72313 8.94459 9.31675 8.61273L9.31676 8.61271L9.31284 8.60957L4.81284 5.00957L4.80542 5.00364L4.79779 4.99799C4.29667 4.62739 3.58572 4.66272 3.14328 5.12011C2.70195 5.56504 2.6501 6.27302 3.03205 6.77338L3.0529 6.8007L3.07729 6.8249L3.20829 6.95491L3.22943 6.97589L3.25292 6.99421L7.80158 10.5432C7.80182 10.5433 7.80206 10.5435 7.8023 10.5437C8.44823 11.051 9.23521 11.33 10.0605 11.33C10.8822 11.33 11.682 11.052 12.3287 10.5429L12.3288 10.5429L12.3319 10.5404L16.8429 6.93038L16.8645 6.91311L16.884 6.89355L16.964 6.81355L16.981 6.79655L16.9963 6.77799C17.3883 6.30234 17.3891 5.61016 16.9782 5.13353L16.9718 5.1261L16.9651 5.11893C16.7402 4.87785 16.4355 4.73417 16.1205 4.70251Z" fill="#CDCBCB" stroke="#CDCBCB"/>
</svg>
