<svg width="14" height="14" viewBox="0 0 14 14" fill="none" xmlns="http://www.w3.org/2000/svg">
<path d="M2.73649 1.26343C2.32969 0.856633 1.67015 0.856633 1.26335 1.26343C0.856553 1.67023 0.856553 2.32977 1.26335 2.73657L5.52678 7L1.26335 11.2634C0.856553 11.6702 0.856553 12.3298 1.26335 12.7366C1.67014 13.1434 2.32969 13.1434 2.73649 12.7366L6.99992 8.47314L11.2633 12.7366C11.6701 13.1434 12.3297 13.1434 12.7365 12.7366C13.1433 12.3298 13.1433 11.6702 12.7365 11.2634L8.47306 7L12.7365 2.73657C13.1433 2.32977 13.1433 1.67023 12.7365 1.26343C12.3297 0.856633 11.6701 0.856633 11.2633 1.26343L6.99992 5.52686L2.73649 1.26343Z" fill="red"/>
</svg>
