<svg width="40" height="40" viewBox="0 0 40 40" fill="none" xmlns="http://www.w3.org/2000/svg">
<rect width="40" height="40" rx="20" fill="#F3F3F4"/>
<path d="M18.3026 26.0233C18.7192 25.9351 21.2577 25.9351 21.6743 26.0233C22.0304 26.1055 22.4155 26.2977 22.4155 26.7174C22.3948 27.1169 22.1604 27.4711 21.8366 27.696C21.4167 28.0233 20.9239 28.2306 20.4088 28.3053C20.1239 28.3422 19.8439 28.3431 19.569 28.3053C19.053 28.2306 18.5602 28.0233 18.1411 27.6951C17.8164 27.4711 17.5821 27.1169 17.5614 26.7174C17.5614 26.2977 17.9465 26.1055 18.3026 26.0233ZM20.0376 11.6667C21.7711 11.6667 23.5418 12.4892 24.5937 13.8539C25.2761 14.7326 25.5892 15.6105 25.5892 16.9752V17.3303C25.5892 18.3769 25.8658 18.9938 26.4746 19.7047C26.9359 20.2284 27.0833 20.9007 27.0833 21.63C27.0833 22.3585 26.8439 23.0501 26.3644 23.6116C25.7366 24.2847 24.8512 24.7144 23.9477 24.7891C22.6382 24.9008 21.328 24.9948 20.0004 24.9948C18.6719 24.9948 17.3625 24.9385 16.0531 24.7891C15.1487 24.7144 14.2633 24.2847 13.6363 23.6116C13.1568 23.0501 12.9166 22.3585 12.9166 21.63C12.9166 20.9007 13.0649 20.2284 13.5254 19.7047C14.1532 18.9938 14.4116 18.3769 14.4116 17.3303V16.9752C14.4116 15.5736 14.7611 14.6571 15.4808 13.7599C16.5508 12.4514 18.2661 11.6667 19.9631 11.6667H20.0376Z" fill="#174C83"/>
</svg>
