<svg width="20" height="20" viewBox="0 0 20 20" fill="none" xmlns="http://www.w3.org/2000/svg">
<g clip-path="url(#clip0_2147_10089)">
<path fill-rule="evenodd" clip-rule="evenodd" d="M19.6163 13.4698L19.6557 13.5627C19.8558 14.0337 19.9639 14.4732 19.9934 14.9439L19.9939 14.9514L19.9943 14.9589C20.052 16.0304 19.6747 17.0696 18.95 17.8596L18.948 17.8618C18.2311 18.6406 17.2489 19.1082 16.1851 19.1644L16.1411 19.1668H3.84859L3.79811 19.1637C3.35935 19.137 2.93773 19.0391 2.55449 18.895L2.53597 18.8881L2.51762 18.8807C0.466198 18.0534 -0.55107 15.7115 0.301095 13.6516L0.342593 13.5513L6.49129 2.87059C6.84546 2.24177 7.38297 1.69125 8.06365 1.32836C9.99602 0.267529 12.4314 0.968862 13.5119 2.87561L19.6163 13.4698ZM12.0645 3.70184C11.4312 2.57882 9.9898 2.16594 8.85666 2.79434C8.46506 3.00077 8.14844 3.32199 7.94015 3.6944L1.84117 14.2888C1.34959 15.477 1.93282 16.8478 3.14095 17.3349C3.38258 17.4258 3.64087 17.4844 3.89916 17.5001H16.0971C16.722 17.4671 17.2969 17.1946 17.7218 16.733C18.1468 16.2697 18.3634 15.6678 18.3301 15.0484C18.3134 14.7834 18.2551 14.5282 18.1218 14.2144L12.0645 3.70184Z" fill="#0E2E4F"/>
<path d="M12.0642 3.70174C11.431 2.57872 9.98956 2.16585 8.85642 2.79424C8.46482 3.00068 8.14821 3.3219 7.93991 3.69431L1.84094 14.2887C1.34935 15.4769 1.93259 16.8477 3.14072 17.3349C3.38234 17.4257 3.64063 17.4843 3.89892 17.5H16.0969C16.7218 17.467 17.2967 17.1945 17.7216 16.7329C18.1465 16.2696 18.3632 15.6677 18.3298 15.0484C18.3132 14.7833 18.2548 14.5281 18.1215 14.2143L12.0642 3.70174Z" fill="#00FF00"/>
<path d="M9.99802 6.6665C9.37806 6.6665 8.84814 7.16431 8.84814 7.80157V10.5224C8.84814 11.1517 9.37089 11.6665 9.99802 11.6665C10.6313 11.6665 11.1396 11.1456 11.1396 10.5224V7.80157C11.1396 7.17044 10.6242 6.6665 9.99802 6.6665Z" fill="white"/>
<path d="M9.99802 12.7124C9.37119 12.7124 8.84814 13.226 8.84814 13.8565C8.84814 14.4854 9.37119 14.9998 9.99802 14.9998C10.6344 14.9998 11.1396 14.4758 11.1396 13.8474C11.1396 13.2186 10.6249 12.7124 9.99802 12.7124Z" fill="white"/>
</g>
<defs>
<clipPath id="clip0_2147_10089">
<rect width="20" height="20" fill="white"/>
</clipPath>
</defs>
</svg>
