<svg width="33" height="32" viewBox="0 0 33 32" fill="none" xmlns="http://www.w3.org/2000/svg">
<rect x="2" y="2" width="29" height="28" rx="14" fill="#1598FF"/>
<path d="M17.6148 12.6409C17.2728 12.042 16.4945 11.8218 15.8826 12.1569C15.6711 12.267 15.5001 12.4383 15.3876 12.637L12.0942 18.2873C11.8287 18.921 12.1437 19.6521 12.7961 19.9119C12.9266 19.9604 13.066 19.9916 13.2055 20H19.7924C20.1298 19.9824 20.4403 19.8371 20.6697 19.5909C20.8992 19.3438 21.0162 19.0228 20.9982 18.6925C20.9892 18.5511 20.9577 18.415 20.8857 18.2477L17.6148 12.6409Z" fill="white"/>
<rect x="2" y="2" width="29" height="28" rx="14" stroke="#0E2E4F" stroke-width="4"/>
</svg>
