<svg width="24" height="24" viewBox="0 0 24 24" fill="none" xmlns="http://www.w3.org/2000/svg">
<path d="M5.4692 12.3077L8.04125 14.5075C8.62571 15.0074 9.27024 15.4476 9.96303 15.8201C11.6608 16.7329 13.6034 17.2151 15.5833 17.2151H18.6538C19.3042 17.2151 19.8315 16.6751 19.8315 16.0089C19.8315 13.3366 19.8315 10.6643 19.8315 7.99202C19.8315 7.32587 19.3042 6.78586 18.6538 6.78586H15.5833C13.6034 6.78586 11.6608 7.26805 9.96303 8.18087C9.27024 8.55337 8.62571 8.99358 8.04125 9.49344L5.4692 11.6932C5.22186 11.8629 5.22186 12.138 5.4692 12.3077Z" fill="white"/>
<path fill-rule="evenodd" clip-rule="evenodd" d="M8.04125 14.5075C8.62571 15.0074 9.27024 15.4476 9.96303 15.8201C11.6608 16.7329 13.6034 17.2151 15.5833 17.2151H18.6538C19.3042 17.2151 19.8315 16.6751 19.8315 16.0089V7.99202C19.8315 7.32587 19.3042 6.78586 18.6538 6.78586H15.5833C13.6034 6.78586 11.6608 7.26805 9.96303 8.18087C9.27024 8.55337 8.62571 8.99358 8.04125 9.49344L5.4692 11.6932C5.22186 11.8629 5.22186 12.138 5.4692 12.3077L8.04125 14.5075ZM8.7847 12.0005L9.55107 12.6559C10.004 13.0432 10.5088 13.389 11.0579 13.6842C12.4067 14.4094 13.972 14.8028 15.5833 14.8028H17.476V9.19818H15.5833C13.972 9.19818 12.4067 9.59153 11.0579 10.3167C10.5088 10.612 10.004 10.9577 9.55107 11.345L8.7847 12.0005Z"/>
</svg>
