<?xml version="1.0" encoding="UTF-8"?>
<!DOCTYPE svg PUBLIC "-//W3C//DTD SVG 1.1//EN" "http://www.w3.org/Graphics/SVG/1.1/DTD/svg11.dtd">
<svg xmlns="http://www.w3.org/2000/svg" version="1.1" width="121px" height="74px" style="shape-rendering:geometricPrecision; text-rendering:geometricPrecision; image-rendering:optimizeQuality; fill-rule:evenodd; clip-rule:evenodd" xmlns:xlink="http://www.w3.org/1999/xlink">
<g><path style="opacity:1" fill="white" d="M -0.5,1.5 C 3.18174,1.3347 6.84841,1.50137 10.5,2C 11,2.5 11.5,3 12,3.5C 12.4999,17.8295 12.6666,32.1628 12.5,46.5C 18.5,46.5 24.5,46.5 30.5,46.5C 30.5,45.1667 30.5,43.8333 30.5,42.5C 32.8333,42.5 35.1667,42.5 37.5,42.5C 37.5,45.5 37.5,48.5 37.5,51.5C 36.5,51.8333 35.8333,52.5 35.5,53.5C 26.3425,54.6576 17.0092,54.8243 7.5,54C 5.5743,53.5776 4.5743,52.4109 4.5,50.5C 4.5,36.5 4.5,22.5 4.5,8.5C 2.83333,8.5 1.16667,8.5 -0.5,8.5C -0.5,6.16667 -0.5,3.83333 -0.5,1.5 Z"/></g>
<g><path style="opacity:1" fill="white" d="M 83.5,22.5 C 80.1667,22.5 76.8333,22.5 73.5,22.5C 73.5,32.8333 73.5,43.1667 73.5,53.5C 71.1667,53.5 68.8333,53.5 66.5,53.5C 66.4347,43.7478 66.4347,33.7478 66.5,23.5C 64.8333,23.5 63.1667,23.5 61.5,23.5C 61.5,20.8333 61.5,18.1667 61.5,15.5C 63.2012,15.9662 64.7012,15.9662 66,15.5C 67.3406,4.67603 73.5073,0.00936795 84.5,1.5C 84.5,3.83333 84.5,6.16667 84.5,8.5C 79.5997,7.9481 76.2663,9.9481 74.5,14.5C 77.4465,15.3214 80.4465,15.8214 83.5,16C 84.8112,18.2735 84.8112,20.4402 83.5,22.5 Z"/></g>
<g><path style="opacity:0.024" fill="white" d="M 50.5,0.5 C 53.2923,0.910308 54.2923,2.24364 53.5,4.5C 52.8333,4.5 52.1667,4.5 51.5,4.5C 50.8333,6.16667 50.1667,7.83333 49.5,9.5C 49.5,7.83333 49.5,6.16667 49.5,4.5C 47.3792,4.32526 45.3792,4.65859 43.5,5.5C 44.6128,3.24306 46.2795,2.5764 48.5,3.5C 49.2975,3.04311 49.6309,2.37644 49.5,1.5C 50.1667,1.5 50.5,1.16667 50.5,0.5 Z"/></g>
<g><path style="opacity:0.725" fill="white" d="M 43.5,-0.5 C 45.5,-0.5 47.5,-0.5 49.5,-0.5C 49.5,0.166667 49.8333,0.5 50.5,0.5C 50.5,1.16667 50.1667,1.5 49.5,1.5C 42.2491,0.899113 39.7491,3.89911 42,10.5C 49.124,14.1754 52.2906,12.1754 51.5,4.5C 52.1667,4.5 52.8333,4.5 53.5,4.5C 55.3097,8.3766 54.3097,11.5433 50.5,14C 40.9347,15.4412 37.4347,11.6079 40,2.5C 41.1451,1.36362 42.3117,0.363622 43.5,-0.5 Z"/></g>
<g><path style="opacity:1" fill="#de2226" d="M 49.5,9.5 C 45.7593,10.4015 43.7593,9.06814 43.5,5.5C 45.3792,4.65859 47.3792,4.32526 49.5,4.5C 49.5,6.16667 49.5,7.83333 49.5,9.5 Z"/></g>
<g><path style="opacity:0.181" fill="white" d="M -0.5,9.5 C -0.5,9.16667 -0.5,8.83333 -0.5,8.5C 1.16667,8.5 2.83333,8.5 4.5,8.5C 4.5,22.5 4.5,36.5 4.5,50.5C 3.50429,37.0102 3.17096,23.3435 3.5,9.5C 2.16667,9.5 0.833333,9.5 -0.5,9.5 Z"/></g>
<g><path style="opacity:0.871" fill="white" d="M 43.5,5.5 C 43.7593,9.06814 45.7593,10.4015 49.5,9.5C 47.8552,11.81 45.8552,11.9766 43.5,10C 42.1991,8.38448 42.1991,6.88448 43.5,5.5 Z"/></g>
<g><path style="opacity:1" fill="white" d="M 51.5,17.5 C 52.1174,17.6107 52.6174,17.944 53,18.5C 53.4998,27.8274 53.6665,37.1607 53.5,46.5C 54.5676,47.4345 55.901,47.7678 57.5,47.5C 57.5,49.5 57.5,51.5 57.5,53.5C 54.5,53.5 51.5,53.5 48.5,53.5C 46.0882,53.3059 45.0882,51.9726 45.5,49.5C 45.5,40.5 45.5,31.5 45.5,22.5C 44.1667,22.5 42.8333,22.5 41.5,22.5C 41.5,20.8333 41.5,19.1667 41.5,17.5C 44.8333,17.5 48.1667,17.5 51.5,17.5 Z"/></g>
<g><path style="opacity:0.816" fill="white" d="M 51.5,17.5 C 48.1667,17.5 44.8333,17.5 41.5,17.5C 41.5,19.1667 41.5,20.8333 41.5,22.5C 41.1667,22.5 40.8333,22.5 40.5,22.5C 40.5,20.1667 40.5,17.8333 40.5,15.5C 43.0115,15.838 45.3448,15.838 47.5,15.5C 49.0255,15.9943 50.3588,16.661 51.5,17.5 Z"/></g>
<g><path style="opacity:0.74" fill="white" d="M 83.5,22.5 C 80.7131,23.4767 77.7131,23.81 74.5,23.5C 74.5,33.8333 74.5,44.1667 74.5,54.5C 71.6146,54.8064 68.9479,54.4731 66.5,53.5C 68.8333,53.5 71.1667,53.5 73.5,53.5C 73.5,43.1667 73.5,32.8333 73.5,22.5C 76.8333,22.5 80.1667,22.5 83.5,22.5 Z"/></g>
<g><path style="opacity:0.988" fill="white" d="M 93.5,22.5 C 91.8333,24.8333 89.8333,26.8333 87.5,28.5C 88.5,25.5 90.5,23.5 93.5,22.5 Z"/></g>
<g><path style="opacity:1" fill="#e92f2d" d="M 104.5,23.5 C 105.933,25.5582 106.6,27.8915 106.5,30.5C 100.167,30.5 93.8333,30.5 87.5,30.5C 87.5,29.8333 87.5,29.1667 87.5,28.5C 89.8333,26.8333 91.8333,24.8333 93.5,22.5C 94.7933,21.8418 96.2933,21.5085 98,21.5C 100.544,21.336 102.71,22.0027 104.5,23.5 Z"/></g>
<g><path style="opacity:0.03" fill="white" d="M 40.5,22.5 C 40.8333,22.5 41.1667,22.5 41.5,22.5C 42.8333,22.5 44.1667,22.5 45.5,22.5C 45.5,31.5 45.5,40.5 45.5,49.5C 44.507,41.0161 44.1736,32.3494 44.5,23.5C 42.901,23.7678 41.5676,23.4345 40.5,22.5 Z"/></g>
<g><path style="opacity:0.744" fill="white" d="M 104.5,23.5 C 107.525,25.587 108.525,28.2536 107.5,31.5C 100.646,31.824 93.979,31.4907 87.5,30.5C 93.8333,30.5 100.167,30.5 106.5,30.5C 106.6,27.8915 105.933,25.5582 104.5,23.5 Z"/></g>
<g><path style="opacity:0.056" fill="white" d="M 87.5,28.5 C 87.5,29.1667 87.5,29.8333 87.5,30.5C 93.979,31.4907 100.646,31.824 107.5,31.5C 100.687,32.4912 93.6866,32.8245 86.5,32.5C 86.2322,30.901 86.5655,29.5676 87.5,28.5 Z"/></g>
<g><path style="opacity:0.207" fill="white" d="M 116.5,29.5 C 115.532,31.6074 115.198,33.9407 115.5,36.5C 105.985,36.1731 96.6517,36.5064 87.5,37.5C 87.5,38.8333 87.5,40.1667 87.5,41.5C 85.9923,39.8292 85.6589,37.9959 86.5,36C 95.8274,35.5002 105.161,35.3335 114.5,35.5C 114.636,32.4486 114.302,29.4486 113.5,26.5C 113.833,25.8333 114.167,25.1667 114.5,24.5C 115.95,25.8498 116.617,27.5165 116.5,29.5 Z"/></g>
<g><path style="opacity:1" fill="#ea2225" d="M 87.5,37.5 C 97.1667,37.5 106.833,37.5 116.5,37.5C 117.113,42.3032 116.78,44.6365 115.5,44.5C 114.5,44.5 113.5,44.5 112.5,44.5C 110.533,44.7394 108.699,44.4061 107,43.5C 106.51,44.7932 106.343,46.1266 106.5,47.5C 102.167,47.5 97.8333,47.5 93.5,47.5C 93.0269,46.0937 92.0269,45.427 90.5,45.5C 88.7376,44.7377 87.7376,43.4044 87.5,41.5C 87.5,40.1667 87.5,38.8333 87.5,37.5 Z"/></g>
<g><path style="opacity:1" fill="white" d="M 116.5,29.5 C 117.833,37.1667 117.833,44.8333 116.5,52.5C 116.206,55.7541 114.873,58.4208 112.5,60.5C 112.16,57.8559 112.827,55.5225 114.5,53.5C 112.282,52.9426 109.949,52.9426 107.5,53.5C 108.514,52.3263 109.847,51.6596 111.5,51.5C 114.051,51.3318 114.718,50.3318 113.5,48.5C 113.167,47.8333 112.833,47.1667 112.5,46.5C 112.5,45.8333 112.5,45.1667 112.5,44.5C 113.5,44.5 114.5,44.5 115.5,44.5C 116.78,44.6365 117.113,42.3032 116.5,37.5C 106.833,37.5 97.1667,37.5 87.5,37.5C 96.6517,36.5064 105.985,36.1731 115.5,36.5C 115.198,33.9407 115.532,31.6074 116.5,29.5 Z"/></g>
<g><path style="opacity:0.729" fill="white" d="M 116.5,29.5 C 117.222,29.9175 117.722,30.5842 118,31.5C 118.167,34.5 118.333,37.5 118.5,40.5C 118.722,44.7968 118.055,48.7968 116.5,52.5C 117.833,44.8333 117.833,37.1667 116.5,29.5 Z"/></g>
<g><path style="opacity:0.385" fill="white" d="M 30.5,42.5 C 32.9479,41.5269 35.6146,41.1936 38.5,41.5C 38.8128,45.0419 38.4794,48.3752 37.5,51.5C 37.5,48.5 37.5,45.5 37.5,42.5C 35.1667,42.5 32.8333,42.5 30.5,42.5 Z"/></g>
<g><path style="opacity:1" fill="#ea7c76" d="M 112.5,44.5 C 112.5,45.1667 112.5,45.8333 112.5,46.5C 111.883,46.3893 111.383,46.056 111,45.5C 105.448,49.8021 99.6143,50.4688 93.5,47.5C 97.8333,47.5 102.167,47.5 106.5,47.5C 106.343,46.1266 106.51,44.7932 107,43.5C 108.699,44.4061 110.533,44.7394 112.5,44.5 Z"/></g>
<g><path style="opacity:0.596" fill="white" d="M 90.5,45.5 C 92.0269,45.427 93.0269,46.0937 93.5,47.5C 91.9731,47.573 90.9731,46.9063 90.5,45.5 Z"/></g>
<g><path style="opacity:0.655" fill="white" d="M 113.5,48.5 C 114.718,50.3318 114.051,51.3318 111.5,51.5C 112.167,50.5 112.833,49.5 113.5,48.5 Z"/></g>
<g><path style="opacity:0.004" fill="white" d="M 37.5,51.5 C 37.5,52.8333 36.8333,53.5 35.5,53.5C 35.8333,52.5 36.5,51.8333 37.5,51.5 Z"/></g>
<g><path style="opacity:0.196" fill="white" d="M 53.5,46.5 C 55.1667,46.5 56.8333,46.5 58.5,46.5C 58.5,49.1667 58.5,51.8333 58.5,54.5C 54.9581,54.8128 51.6248,54.4794 48.5,53.5C 51.5,53.5 54.5,53.5 57.5,53.5C 57.5,51.5 57.5,49.5 57.5,47.5C 55.901,47.7678 54.5676,47.4345 53.5,46.5 Z"/></g>
<g><path style="opacity:0.4" fill="white" d="M 107.5,53.5 C 107.573,55.0269 106.906,56.0269 105.5,56.5C 105.427,54.9731 106.094,53.9731 107.5,53.5 Z"/></g>
<g><path style="opacity:0.635" fill="white" d="M 105.5,56.5 C 104.833,59.1667 103.167,60.8333 100.5,61.5C 101.833,59.5 103.5,57.8333 105.5,56.5 Z"/></g>
<g><path style="opacity:0.588" fill="white" d="M 11.5,57.5 C 15.4193,56.7464 16.7527,58.0797 15.5,61.5C 13.9911,59.0852 12.3245,58.9185 10.5,61C 13.2972,62.7207 15.6305,64.8874 17.5,67.5C 14.1799,72.7278 11.3466,72.7278 9,67.5C 11.3334,70.1506 13.1668,69.9839 14.5,67C 12.0419,65.4416 10.0419,63.4416 8.5,61C 9.07071,59.4009 10.0707,58.2342 11.5,57.5 Z"/></g>
<g><path style="opacity:0.086" fill="white" d="M 88.5,62.5 C 87.0413,62.4326 85.7079,62.7659 84.5,63.5C 84.62,62.4138 85.2867,61.7472 86.5,61.5C 87.4164,61.5427 88.0831,61.8761 88.5,62.5 Z"/></g>
<g><path style="opacity:0.035" fill="white" d="M 112.5,60.5 C 112.573,62.0269 111.906,63.0269 110.5,63.5C 110.427,61.9731 111.094,60.9731 112.5,60.5 Z"/></g>
<g><path style="opacity:0.227" fill="white" d="M 99.5,61.5 C 99.3893,62.1174 99.056,62.6174 98.5,63C 94.9733,63.8075 91.6399,63.6408 88.5,62.5C 92.2343,62.6773 95.9009,62.3439 99.5,61.5 Z"/></g>
<g><path style="opacity:0.574" fill="white" d="M 66.5,69.5 C 66.6106,71.6477 65.944,71.981 64.5,70.5C 63.5258,68.2573 63.1924,65.924 63.5,63.5C 62.1779,63.33 61.0113,63.6634 60,64.5C 58.6058,72.2198 57.7724,71.8865 57.5,63.5C 56.0222,63.238 54.6888,63.5713 53.5,64.5C 52.9588,66.5352 52.2922,68.5352 51.5,70.5C 50.792,67.6336 50.1253,64.8003 49.5,62C 50.7839,61.3162 51.9505,61.4829 53,62.5C 55,59.8333 57,59.8333 59,62.5C 60.7636,60.339 62.5969,60.1723 64.5,62C 65.1233,64.6073 65.79,67.1073 66.5,69.5 Z"/></g>
<g><path style="opacity:0.625" fill="white" d="M 34.5,62.5 C 35.8311,58.7343 37.4977,58.7343 39.5,62.5C 36.6737,65.5193 37.0071,68.0193 40.5,70C 39.1813,71.6279 37.8479,71.4613 36.5,69.5C 35.9329,67.0177 35.2663,64.6843 34.5,62.5 Z"/></g>
<g><path style="opacity:0.578" fill="white" d="M 44.5,60.5 C 47.9478,61.02 49.6145,63.02 49.5,66.5C 47.1432,66.3367 44.8098,66.5034 42.5,67C 43.354,68.0217 44.354,68.8551 45.5,69.5C 46.891,68.3554 48.2243,68.3554 49.5,69.5C 46.4373,72.1069 43.604,71.7736 41,68.5C 39.7801,64.7069 40.9468,62.0402 44.5,60.5 Z"/></g>
<g><path style="opacity:0.661" fill="white" d="M 66.5,69.5 C 68.5347,69.3203 70.5347,68.8203 72.5,68C 70.1558,67.1628 68.1558,65.8294 66.5,64C 67.8155,61.1673 69.8155,60.334 72.5,61.5C 73.8333,62.5 73.8333,63.5 72.5,64.5C 71.549,63.6744 70.549,63.5078 69.5,64C 71.0905,65.0458 72.5905,66.2125 74,67.5C 74.0334,69.8771 72.7001,71.2105 70,71.5C 68.6974,71.0217 67.5307,70.355 66.5,69.5 Z"/></g>
<g><path style="opacity:1" fill="white" d="M 112.5,60.5 C 111.094,60.9731 110.427,61.9731 110.5,63.5C 109.738,65.2624 108.404,66.2624 106.5,66.5C 104.973,66.427 103.973,67.0937 103.5,68.5C 98.1946,69.4419 92.8613,69.6086 87.5,69C 84.9648,68.0718 83.9648,66.2385 84.5,63.5C 85.7079,62.7659 87.0413,62.4326 88.5,62.5C 91.6399,63.6408 94.9733,63.8075 98.5,63C 99.056,62.6174 99.3893,62.1174 99.5,61.5C 99.8333,61.5 100.167,61.5 100.5,61.5C 103.167,60.8333 104.833,59.1667 105.5,56.5C 106.906,56.0269 107.573,55.0269 107.5,53.5C 109.949,52.9426 112.282,52.9426 114.5,53.5C 112.827,55.5225 112.16,57.8559 112.5,60.5 Z"/></g>
<g><path style="opacity:0.596" fill="white" d="M 27.5,62.5 C 25.049,65.7403 23.3824,69.4069 22.5,73.5C 20.8333,73.5 19.1667,73.5 17.5,73.5C 19.0758,72.7168 20.4092,71.5501 21.5,70C 20.0394,67.5794 18.7061,65.0794 17.5,62.5C 18.2739,61.2888 19.1072,61.2888 20,62.5C 20.8624,64.087 21.5291,65.7536 22,67.5C 22.8333,65.8333 23.6667,64.1667 24.5,62.5C 25.6136,61.2241 26.6136,61.2241 27.5,62.5 Z"/></g>
<g><path style="opacity:0.016" fill="white" d="M 106.5,66.5 C 106.027,67.9063 105.027,68.573 103.5,68.5C 103.973,67.0937 104.973,66.427 106.5,66.5 Z"/></g>
<g><path style="opacity:0.576" fill="white" d="M 34.5,62.5 C 34.6309,63.3764 34.2975,64.0431 33.5,64.5C 32.2322,63.5721 30.8989,63.4054 29.5,64C 35.3364,65.7919 35.8364,68.2919 31,71.5C 29.605,71.2196 28.4383,70.5529 27.5,69.5C 29.2555,69.6405 30.9222,69.1405 32.5,68C 29.293,67.4283 27.6263,65.595 27.5,62.5C 28.7206,61.9717 29.8873,61.305 31,60.5C 32.1127,61.305 33.2794,61.9717 34.5,62.5 Z"/></g>
<g><path style="opacity:0.635" fill="white" d="M 84.5,63.5 C 83.9648,66.2385 84.9648,68.0718 87.5,69C 92.8613,69.6086 98.1946,69.4419 103.5,68.5C 102.737,69.2679 101.737,69.7679 100.5,70C 95.8333,70.6667 91.1667,70.6667 86.5,70C 82.0807,68.9116 81.4141,66.7449 84.5,63.5 Z"/></g>
</svg>
