<svg width="12" height="12" viewBox="0 0 12 12" fill="none" xmlns="http://www.w3.org/2000/svg">
<path d="M2.87207 3.74774C2.62721 3.56606 2.2801 3.586 2.05806 3.80804C1.81398 4.05212 1.81398 4.44785 2.05806 4.69193L5.56453 8.1984L5.62051 8.24673L5.62793 8.25223C5.87279 8.43391 6.2199 8.41397 6.44194 8.19193L9.94842 4.68545L9.99674 4.62947L10.0022 4.62206C10.1839 4.3772 10.164 4.03009 9.94194 3.80804L9.93546 3.80157L9.87949 3.75324L9.87207 3.74774C9.62721 3.56606 9.2801 3.586 9.05806 3.80804L6 6.86594L2.93546 3.80157L2.87949 3.75324L2.87207 3.74774Z" fill="#45709C"/>
</svg>
