<svg width="12" height="14" viewBox="0 0 12 14" fill="none" xmlns="http://www.w3.org/2000/svg">
<path fill-rule="evenodd" clip-rule="evenodd" d="M8.66667 0.333305C8.99483 0.333534 9.33202 0.552509 9.33267 0.845696L9.33333 1.67347C11.1698 1.8174 11.9908 2.74075 11.9928 4.65979L12 10.277C12.0026 12.3693 10.6882 13.6566 8.58121 13.6599L3.4346 13.6666C1.3408 13.6693 0.00988388 12.3513 0.00725101 10.253L6.17086e-06 4.70177C-0.00262227 2.77007 0.834343 1.85005 2.67077 1.68147L2.67011 0.853693C2.66946 0.560506 3.0041 0.333721 3.33332 0.333283C3.66267 0.332847 3.99735 0.559174 3.99801 0.85236L3.99867 1.64682L8 1.64149L7.99934 0.847028C7.99868 0.553842 8.33778 0.333075 8.66667 0.333305ZM8.00133 2.99466L4 2.99999L4.00066 3.82558C4.00066 4.11277 3.6608 4.33484 3.33334 4.33332C3.00828 4.33181 2.67276 4.1141 2.67276 3.82691L2.6721 2.99466C2 2.99999 1.33331 3.33332 1.33331 4.70043V6.33332H10.6666V4.66663C10.6666 3.33332 10 2.99466 9.34 2.99999L9.33532 3.81956C9.33532 4.10608 8.99871 4.3323 8.67063 4.33332C8.34165 4.33435 8.00199 4.10742 8.00199 3.82089L8.00133 2.99466ZM2.66667 9.66666C2.66667 10.0348 2.96514 10.3333 3.33333 10.3333C3.70152 10.3333 4 10.0348 4 9.66666C4 9.29847 3.70152 8.99999 3.33333 8.99999C2.96514 8.99999 2.66667 9.29847 2.66667 9.66666ZM6.66667 9.66666C6.66667 9.29847 6.96514 8.99999 7.33333 8.99999H8.66667C9.03486 8.99999 9.33333 9.29847 9.33333 9.66666C9.33333 10.0348 9.03486 10.3333 8.66667 10.3333H7.33333C6.96514 10.3333 6.66667 10.0348 6.66667 9.66666Z" fill="#45709C"/>
</svg>
