<svg width="10" height="10" viewBox="0 0 10 10" fill="none" xmlns="http://www.w3.org/2000/svg">
<path d="M1.58909 0.410765C1.26366 0.0853278 0.736018 0.0853278 0.410582 0.410765C0.0851447 0.736202 0.0851447 1.26384 0.410582 1.58928L3.82133 5.00002L0.410582 8.41076C0.0851449 8.7362 0.0851449 9.26384 0.410582 9.58928C0.736018 9.91471 1.26366 9.91471 1.58909 9.58928L4.99984 6.17853L8.41058 9.58928C8.73602 9.91471 9.26366 9.91471 9.58909 9.58928C9.91453 9.26384 9.91453 8.7362 9.58909 8.41076L6.17835 5.00002L9.58909 1.58928C9.91453 1.26384 9.91453 0.736201 9.58909 0.410765C9.26366 0.0853277 8.73602 0.0853277 8.41058 0.410765L4.99984 3.82151L1.58909 0.410765Z" fill="#174C83"/>
</svg>
