<svg width="14" height="14" viewBox="0 0 14 14" fill="none" xmlns="http://www.w3.org/2000/svg">
<path fill-rule="evenodd" clip-rule="evenodd" d="M6.33341 0.166656C2.92766 0.166656 0.166748 2.92757 0.166748 6.33332C0.166748 9.73908 2.92766 12.5 6.33341 12.5C7.7355 12.5 9.02896 12.0317 10.0649 11.2433L12.4108 13.5892C12.7363 13.9147 13.2639 13.9147 13.5893 13.5892C13.9148 13.2638 13.9148 12.7362 13.5893 12.4107L11.2434 10.0648C12.0318 9.02886 12.5001 7.73541 12.5001 6.33332C12.5001 2.92757 9.73917 0.166656 6.33341 0.166656ZM1.83341 6.33332C1.83341 3.84804 3.84813 1.83332 6.33341 1.83332C8.8187 1.83332 10.8334 3.84804 10.8334 6.33332C10.8334 7.54172 10.3575 8.63831 9.58227 9.447C9.55746 9.4667 9.5336 9.48796 9.51083 9.51073C9.48805 9.53351 9.46679 9.55737 9.44709 9.58218C8.6384 10.3574 7.54182 10.8333 6.33341 10.8333C3.84813 10.8333 1.83341 8.8186 1.83341 6.33332Z" fill="#45709C"/>
</svg>
