<svg width="16" height="16" viewBox="0 0 16 16" fill="none" xmlns="http://www.w3.org/2000/svg">
<path d="M7.99992 1.3334C11.6866 1.3334 14.6666 4.32007 14.6666 8.00007C14.6666 11.6867 11.6866 14.6667 7.99992 14.6667C4.31992 14.6667 1.33325 11.6867 1.33325 8.00007C1.33325 4.32007 4.31992 1.3334 7.99992 1.3334ZM7.76659 4.62007C7.49325 4.62007 7.26659 4.84007 7.26659 5.12007V8.48674C7.26659 8.66007 7.35992 8.82007 7.51325 8.9134L10.1266 10.4734C10.2066 10.5201 10.2933 10.5467 10.3866 10.5467C10.5533 10.5467 10.7199 10.4601 10.8133 10.3001C10.9533 10.0667 10.8799 9.76007 10.6399 9.6134L8.26659 8.20007V5.12007C8.26659 4.84007 8.03992 4.62007 7.76659 4.62007Z" fill="#45709C"/>
</svg>
