<svg width="45" height="45" viewBox="0 0 45 45" fill="none" xmlns="http://www.w3.org/2000/svg">
<g clip-path="url(#clip0_215_265)">
<path d="M35.8875 24.2625C35.9625 23.7 36 23.1188 36 22.5C36 21.9 35.9625 21.3 35.8687 20.7375L39.675 17.775C40.0125 17.5125 40.1062 17.0063 39.9 16.6313L36.3 10.4063C36.075 9.99375 35.6062 9.8625 35.1937 9.99375L30.7125 11.7938C29.775 11.0813 28.7812 10.4812 27.675 10.0312L27 5.26875C26.925 4.81875 26.55 4.5 26.1 4.5H18.9C18.45 4.5 18.0937 4.81875 18.0187 5.26875L17.3437 10.0312C16.2375 10.4812 15.225 11.1 14.3062 11.7938L9.82496 9.99375C9.41246 9.84375 8.94371 9.99375 8.71871 10.4063L5.13746 16.6313C4.91246 17.025 4.98746 17.5125 5.36246 17.775L9.16871 20.7375C9.07496 21.3 8.99996 21.9188 8.99996 22.5C8.99996 23.0813 9.03746 23.7 9.13121 24.2625L5.32496 27.225C4.98746 27.4875 4.89371 27.9938 5.09996 28.3688L8.69996 34.5938C8.92496 35.0063 9.39371 35.1375 9.80621 35.0063L14.2875 33.2063C15.225 33.9188 16.2187 34.5188 17.325 34.9688L18 39.7313C18.0937 40.1813 18.45 40.5 18.9 40.5H26.1C26.55 40.5 26.925 40.1813 26.9812 39.7313L27.6562 34.9688C28.7625 34.5188 29.775 33.9188 30.6937 33.2063L35.175 35.0063C35.5875 35.1563 36.0562 35.0063 36.2812 34.5938L39.8812 28.3688C40.1062 27.9563 40.0125 27.4875 39.6562 27.225L35.8875 24.2625ZM22.5 29.25C18.7875 29.25 15.75 26.2125 15.75 22.5C15.75 18.7875 18.7875 15.75 22.5 15.75C26.2125 15.75 29.25 18.7875 29.25 22.5C29.25 26.2125 26.2125 29.25 22.5 29.25Z" fill="black"/>
</g>
<defs>
<clipPath id="clip0_215_265">
<rect width="45" height="45" fill="white"/>
</clipPath>
</defs>
</svg>
